<?xml version="1.0" encoding="UTF-8" standalone="no"?>
<!-- Uploaded to: SVG Repo, www.svgrepo.com, Generator: SVG Repo Mixer Tools -->

<svg
   fill="#000000"
   version="1.1"
   id="Capa_1"
   width="831.49603"
   height="831.49603"
   viewBox="0 0 48.158171 48.158171"
   xml:space="preserve"
   sodipodi:docname="favicon.svg"
   inkscape:export-filename="favicon.svg"
   inkscape:export-xdpi="96"
   inkscape:export-ydpi="96"
   inkscape:version="1.2.2 (732a01da63, 2022-12-09)"
   inkscape:dataloss="true"
   xmlns:inkscape="http://www.inkscape.org/namespaces/inkscape"
   xmlns:sodipodi="http://sodipodi.sourceforge.net/DTD/sodipodi-0.dtd"
   xmlns="http://www.w3.org/2000/svg"
   xmlns:svg="http://www.w3.org/2000/svg"><defs
   id="defs4411" /><sodipodi:namedview
   id="namedview4409"
   pagecolor="#ffffff"
   bordercolor="#000000"
   borderopacity="0.25"
   inkscape:showpageshadow="2"
   inkscape:pageopacity="0.0"
   inkscape:pagecheckerboard="0"
   inkscape:deskcolor="#d1d1d1"
   showgrid="false"
   inkscape:zoom="0.295"
   inkscape:cx="111.86441"
   inkscape:cy="400"
   inkscape:window-width="2496"
   inkscape:window-height="1558"
   inkscape:window-x="-11"
   inkscape:window-y="-11"
   inkscape:window-maximized="1"
   inkscape:current-layer="Capa_1" />
<g
   inkscape:groupmode="layer"
   id="layer3"
   inkscape:label="Layer 1"
   transform="translate(44.87466,44.87466)"><circle
     style="fill:#ffffff;fill-opacity:1;stroke-width:0.999859;stroke-linejoin:bevel"
     id="path6397"
     cx="-20.795574"
     cy="-20.795574"
     r="24.079086" /></g><g
   id="g4406"
   style="fill:#05472a;fill-opacity:1"
   transform="matrix(0.94490156,0,0,0.94490228,2.1242385,1.9701065)">
	<g
   id="g4404"
   style="fill:#05472a;fill-opacity:1;stroke:#05472a;stroke-width:0.694995;stroke-dasharray:none;stroke-opacity:1">
		<path
   d="m 41.656,23.167 c 2.873,-3.743 3.711,-7.315 2.352,-10.118 -1.383,-2.847 -4.819,-4.415 -9.678,-4.415 -0.692,0 -1.409,0.04 -2.139,0.101 C 30.109,3.385 26.87,0 23.166,0 19.462,0 16.223,3.384 14.141,8.735 13.413,8.673 12.696,8.634 12.003,8.634 c -4.858,0 -8.295,1.568 -9.677,4.415 -1.36,2.803 -0.521,6.375 2.352,10.118 -2.873,3.742 -3.712,7.315 -2.352,10.118 1.382,2.848 4.819,4.415 9.676,4.415 0.693,0 1.411,-0.04 2.139,-0.101 2.082,5.351 5.321,8.734 9.025,8.734 3.704,0 6.943,-3.384 9.025,-8.734 0.729,0.062 1.446,0.101 2.139,0.101 h 0.001 c 4.857,0 8.293,-1.567 9.676,-4.415 1.361,-2.802 0.522,-6.376 -2.351,-10.118 z M 34.33,11.635 c 3.595,0 6.138,0.993 6.979,2.725 0.778,1.603 0.162,3.933 -1.677,6.5 -1.562,-1.596 -3.414,-3.132 -5.496,-4.553 -0.242,-1.63 -0.57,-3.177 -0.972,-4.625 0.394,-0.023 0.788,-0.047 1.166,-0.047 z m -7.468,19.143 c -1.222,0.593 -2.46,1.122 -3.696,1.59 -1.235,-0.468 -2.474,-0.997 -3.695,-1.59 -1.576,-0.765 -3.065,-1.608 -4.468,-2.5 -0.187,-1.615 -0.299,-3.315 -0.299,-5.112 0,-1.796 0.112,-3.497 0.299,-5.112 1.403,-0.891 2.892,-1.734 4.468,-2.499 1.222,-0.593 2.46,-1.122 3.695,-1.59 1.236,0.468 2.475,0.997 3.696,1.59 1.575,0.765 3.064,1.607 4.466,2.499 0.188,1.615 0.3,3.317 0.3,5.113 0,1.796 -0.112,3.497 -0.3,5.112 -1.4,0.891 -2.89,1.735 -4.466,2.499 z m 3.823,1.378 c -0.165,0.746 -0.346,1.462 -0.547,2.145 -0.842,-0.144 -1.7,-0.321 -2.576,-0.543 0.204,-0.097 0.408,-0.182 0.611,-0.279 0.86,-0.42 1.693,-0.865 2.512,-1.323 z m -11.914,1.602 c -0.876,0.222 -1.734,0.399 -2.577,0.543 -0.201,-0.683 -0.382,-1.399 -0.547,-2.146 0.818,0.458 1.651,0.903 2.513,1.321 0.204,0.1 0.408,0.185 0.611,0.282 z M 11.789,26.006 C 10.626,25.09 9.56,24.139 8.631,23.167 c 0.929,-0.973 1.995,-1.922 3.158,-2.839 -0.054,0.93 -0.085,1.875 -0.085,2.839 0,0.964 0.031,1.909 0.085,2.839 z m 3.859,-11.828 c 0.165,-0.746 0.346,-1.463 0.547,-2.146 0.842,0.145 1.7,0.322 2.576,0.544 -0.203,0.095 -0.407,0.18 -0.61,0.279 -0.862,0.42 -1.695,0.865 -2.513,1.323 z m 11.914,-1.601 c 0.876,-0.222 1.734,-0.4 2.576,-0.544 0.2,0.683 0.382,1.399 0.547,2.145 -0.818,-0.458 -1.651,-0.904 -2.512,-1.322 -0.202,-0.098 -0.407,-0.183 -0.611,-0.279 z m 6.982,7.749 c 1.162,0.918 2.229,1.867 3.158,2.84 -0.929,0.973 -1.996,1.922 -3.158,2.84 0.054,-0.93 0.085,-1.875 0.085,-2.84 0,-0.964 -0.032,-1.909 -0.085,-2.84 z M 23.166,3 c 2.097,0 4.312,2.288 5.953,6.159 -1.928,0.358 -3.927,0.902 -5.952,1.616 C 21.142,10.061 19.143,9.518 17.215,9.159 18.854,5.288 21.07,3 23.166,3 Z M 5.025,14.36 c 0.84,-1.732 3.384,-2.725 6.978,-2.725 0.377,0 0.772,0.025 1.166,0.046 -0.402,1.449 -0.729,2.996 -0.971,4.626 -2.082,1.421 -3.935,2.957 -5.495,4.553 -1.841,-2.568 -2.457,-4.897 -1.678,-6.5 z m 6.977,20.339 c -3.593,0 -6.137,-0.993 -6.977,-2.725 -0.779,-1.604 -0.163,-3.934 1.678,-6.5 1.56,1.596 3.413,3.132 5.495,4.553 0.242,1.63 0.57,3.178 0.971,4.626 -0.394,0.023 -0.79,0.046 -1.167,0.046 z m 11.164,8.635 c -2.096,0 -4.312,-2.287 -5.952,-6.158 1.928,-0.358 3.927,-0.902 5.953,-1.617 2.025,0.715 4.024,1.258 5.952,1.617 -1.64,3.871 -3.856,6.158 -5.953,6.158 z M 41.309,31.975 c -0.84,1.731 -3.383,2.725 -6.978,2.725 v 0 c -0.377,0 -0.772,-0.025 -1.167,-0.046 0.401,-1.449 0.729,-2.996 0.972,-4.626 2.083,-1.421 3.936,-2.958 5.497,-4.553 1.838,2.566 2.455,4.896 1.676,6.5 z"
   id="path4400"
   style="fill:#05472a;fill-opacity:1;stroke:#05472a;stroke-width:0.694995;stroke-dasharray:none;stroke-opacity:1" />
		<circle
   cx="23.166"
   cy="23.167"
   r="4.652"
   id="circle4402"
   style="fill:#05472a;fill-opacity:1;stroke:#05472a;stroke-width:0.694995;stroke-dasharray:none;stroke-opacity:1" />
	</g>
</g>
</svg>
